{
	"asset":{
		"copyright":"Spawnland",
		"generator":"Khronos glTF Blender I/O v4.2.57",
		"version":"2.0"
	},
	"scene":0,
	"scenes":[
		{
			"name":"Scene",
			"nodes":[
				0,
				1,
				2,
				3,
				4,
				5,
				6,
				7,
				8,
				9,
				10
			]
		}
	],
	"nodes":[
		{
			"mesh":0,
			"name":"br_Ground",
			"translation":[
				7.975151062011719,
				-1.1277985572814941,
				-5.705088369722944e-06
			]
		},
		{
			"mesh":1,
			"name":"db_Ceiling",
			"rotation":[
				0,
				0,
				0.9999911785125732,
				0.004224928095936775
			],
			"translation":[
				62.263526916503906,
				15.435361862182617,
				6.91647164785536e-06
			]
		},
		{
			"mesh":2,
			"name":"dt_Grass",
			"translation":[
				47.006229400634766,
				3.2262122631073,
				0
			]
		},
		{
			"mesh":3,
			"name":"dt_Grass.001",
			"translation":[
				42.48350143432617,
				3.2262122631073,
				0
			]
		},
		{
			"mesh":4,
			"name":"dt_Grass.002",
			"scale":[
				1.5811675786972046,
				1.581167459487915,
				1.5811675786972046
			],
			"translation":[
				35.41419219970703,
				0.9434846043586731,
				0.03162611648440361
			]
		},
		{
			"mesh":5,
			"name":"dt_Grass.004",
			"scale":[
				1.5811675786972046,
				1.581167459487915,
				1.5811675786972046
			],
			"translation":[
				25.99370574951172,
				0.4666609764099121,
				0.031626179814338684
			]
		},
		{
			"mesh":6,
			"name":"dt_Grass.003",
			"scale":[
				1.5811675786972046,
				1.581167459487915,
				1.5811675786972046
			],
			"translation":[
				23.786672592163086,
				0.47070422768592834,
				0.031626567244529724
			]
		},
		{
			"mesh":7,
			"name":"dt_Grass.005",
			"scale":[
				1.5811675786972046,
				1.581167459487915,
				1.5811675786972046
			],
			"translation":[
				22.29239845275879,
				0.4734417200088501,
				0.031626828014850616
			]
		},
		{
			"mesh":8,
			"name":"dt_Grass.006",
			"scale":[
				1.5811675786972046,
				1.581167459487915,
				1.5811675786972046
			],
			"translation":[
				20.476566314697266,
				0.47676828503608704,
				0.031627144664525986
			]
		},
		{
			"mesh":9,
			"name":"sp_Player_0",
			"scale":[
				1,
				1,
				2
			],
			"translation":[
				51.75178909301758,
				2.284583806991577,
				5.397787390393205e-06
			]
		},
		{
			"mesh":10,
			"name":"sp_Player_1",
			"scale":[
				1,
				1,
				2
			],
			"translation":[
				15.204452514648438,
				-0.12448500841856003,
				5.0741077757265884e-06
			]
		}
	],
	"materials":[
		{
			"doubleSided":true,
			"name":"Material",
			"pbrMetallicRoughness":{
				"baseColorTexture":{
					"index":0
				},
				"metallicFactor":0,
				"roughnessFactor":0.5
			}
		},
		{
			"doubleSided":true,
			"name":"Material.001",
			"pbrMetallicRoughness":{
				"baseColorTexture":{
					"index":1
				},
				"metallicFactor":0,
				"roughnessFactor":0.5
			}
		},
		{
			"alphaMode":"BLEND",
			"doubleSided":true,
			"name":"Material.002",
			"pbrMetallicRoughness":{
				"baseColorTexture":{
					"index":2
				},
				"metallicFactor":0,
				"roughnessFactor":0.5
			}
		}
	],
	"meshes":[
		{
			"name":"Plane.001",
			"primitives":[
				{
					"attributes":{
						"POSITION":0,
						"NORMAL":1,
						"TEXCOORD_0":2
					},
					"indices":3,
					"material":0
				}
			]
		},
		{
			"name":"Plane.002",
			"primitives":[
				{
					"attributes":{
						"POSITION":4,
						"NORMAL":5,
						"TEXCOORD_0":6
					},
					"indices":7,
					"material":1
				}
			]
		},
		{
			"name":"Plane.003",
			"primitives":[
				{
					"attributes":{
						"POSITION":8,
						"NORMAL":9,
						"TEXCOORD_0":10
					},
					"indices":11
				}
			]
		},
		{
			"name":"Plane.004",
			"primitives":[
				{
					"attributes":{
						"POSITION":12,
						"NORMAL":13,
						"TEXCOORD_0":14
					},
					"indices":11
				}
			]
		},
		{
			"name":"Plane.005",
			"primitives":[
				{
					"attributes":{
						"POSITION":15,
						"NORMAL":16,
						"TEXCOORD_0":17
					},
					"indices":11,
					"material":2
				}
			]
		},
		{
			"name":"Plane.007",
			"primitives":[
				{
					"attributes":{
						"POSITION":18,
						"NORMAL":19,
						"TEXCOORD_0":20
					},
					"indices":11,
					"material":2
				}
			]
		},
		{
			"name":"Plane.009",
			"primitives":[
				{
					"attributes":{
						"POSITION":21,
						"NORMAL":22,
						"TEXCOORD_0":23
					},
					"indices":11,
					"material":2
				}
			]
		},
		{
			"name":"Plane.010",
			"primitives":[
				{
					"attributes":{
						"POSITION":24,
						"NORMAL":25,
						"TEXCOORD_0":26
					},
					"indices":11,
					"material":2
				}
			]
		},
		{
			"name":"Plane.011",
			"primitives":[
				{
					"attributes":{
						"POSITION":27,
						"NORMAL":28,
						"TEXCOORD_0":29
					},
					"indices":11,
					"material":2
				}
			]
		},
		{
			"name":"Plane",
			"primitives":[
				{
					"attributes":{
						"POSITION":30,
						"NORMAL":31,
						"TEXCOORD_0":32
					},
					"indices":11
				}
			]
		},
		{
			"name":"Plane.006",
			"primitives":[
				{
					"attributes":{
						"POSITION":33,
						"NORMAL":34,
						"TEXCOORD_0":35
					},
					"indices":11
				}
			]
		}
	],
	"textures":[
		{
			"sampler":0,
			"source":0
		},
		{
			"sampler":1,
			"source":0
		},
		{
			"sampler":1,
			"source":1
		}
	],
	"images":[
		{
			"mimeType":"image/jpeg",
			"name":"wood",
			"uri":"textures/mapTextures/wood.jpg"
		},
		{
			"mimeType":"image/png",
			"name":"Grass",
			"uri":"textures/mapTextures/Grass.png"
		}
	],
	"accessors":[
		{
			"bufferView":0,
			"componentType":5126,
			"count":47,
			"max":[
				67.60702514648438,
				20.671306610107422,
				0.001580926007591188
			],
			"min":[
				-3.009871006011963,
				-1.009848713874817,
				-4.414188836676658e-08
			],
			"type":"VEC3"
		},
		{
			"bufferView":1,
			"componentType":5126,
			"count":47,
			"type":"VEC3"
		},
		{
			"bufferView":2,
			"componentType":5126,
			"count":47,
			"type":"VEC2"
		},
		{
			"bufferView":3,
			"componentType":5123,
			"count":96,
			"type":"SCALAR"
		},
		{
			"bufferView":4,
			"componentType":5126,
			"count":34,
			"max":[
				67.60702514648438,
				20.671306610107422,
				0.001580926007591188
			],
			"min":[
				-3.009871006011963,
				-1.009848713874817,
				-4.414188836676658e-08
			],
			"type":"VEC3"
		},
		{
			"bufferView":5,
			"componentType":5126,
			"count":34,
			"type":"VEC3"
		},
		{
			"bufferView":6,
			"componentType":5126,
			"count":34,
			"type":"VEC2"
		},
		{
			"bufferView":7,
			"componentType":5123,
			"count":96,
			"type":"SCALAR"
		},
		{
			"bufferView":8,
			"componentType":5126,
			"count":4,
			"max":[
				1,
				1,
				3.4570300044833857e-07
			],
			"min":[
				-1,
				-1,
				-3.4570300044833857e-07
			],
			"type":"VEC3"
		},
		{
			"bufferView":9,
			"componentType":5126,
			"count":4,
			"type":"VEC3"
		},
		{
			"bufferView":10,
			"componentType":5126,
			"count":4,
			"type":"VEC2"
		},
		{
			"bufferView":11,
			"componentType":5123,
			"count":6,
			"type":"SCALAR"
		},
		{
			"bufferView":12,
			"componentType":5126,
			"count":4,
			"max":[
				1,
				1,
				3.4570300044833857e-07
			],
			"min":[
				-1,
				-1,
				-3.4570300044833857e-07
			],
			"type":"VEC3"
		},
		{
			"bufferView":13,
			"componentType":5126,
			"count":4,
			"type":"VEC3"
		},
		{
			"bufferView":14,
			"componentType":5126,
			"count":4,
			"type":"VEC2"
		},
		{
			"bufferView":15,
			"componentType":5126,
			"count":4,
			"max":[
				1.3643254041671753,
				1.3643254041671753,
				3.683034606183355e-07
			],
			"min":[
				-1.3643254041671753,
				-1.3643254041671753,
				-3.683034606183355e-07
			],
			"type":"VEC3"
		},
		{
			"bufferView":16,
			"componentType":5126,
			"count":4,
			"type":"VEC3"
		},
		{
			"bufferView":17,
			"componentType":5126,
			"count":4,
			"type":"VEC2"
		},
		{
			"bufferView":18,
			"componentType":5126,
			"count":4,
			"max":[
				1.0018303394317627,
				1.0018303394317627,
				2.5066350417546346e-07
			],
			"min":[
				-1.0018303394317627,
				-1.0018303394317627,
				-2.5066350417546346e-07
			],
			"type":"VEC3"
		},
		{
			"bufferView":19,
			"componentType":5126,
			"count":4,
			"type":"VEC3"
		},
		{
			"bufferView":20,
			"componentType":5126,
			"count":4,
			"type":"VEC2"
		},
		{
			"bufferView":21,
			"componentType":5126,
			"count":4,
			"max":[
				1.0018303394317627,
				1.0018303394317627,
				2.5066350417546346e-07
			],
			"min":[
				-1.0018303394317627,
				-1.0018303394317627,
				-2.5066350417546346e-07
			],
			"type":"VEC3"
		},
		{
			"bufferView":22,
			"componentType":5126,
			"count":4,
			"type":"VEC3"
		},
		{
			"bufferView":23,
			"componentType":5126,
			"count":4,
			"type":"VEC2"
		},
		{
			"bufferView":24,
			"componentType":5126,
			"count":4,
			"max":[
				1.0018303394317627,
				1.0018303394317627,
				2.5066350417546346e-07
			],
			"min":[
				-1.0018303394317627,
				-1.0018303394317627,
				-2.5066350417546346e-07
			],
			"type":"VEC3"
		},
		{
			"bufferView":25,
			"componentType":5126,
			"count":4,
			"type":"VEC3"
		},
		{
			"bufferView":26,
			"componentType":5126,
			"count":4,
			"type":"VEC2"
		},
		{
			"bufferView":27,
			"componentType":5126,
			"count":4,
			"max":[
				1.0018303394317627,
				1.0018303394317627,
				2.5066350417546346e-07
			],
			"min":[
				-1.0018303394317627,
				-1.0018303394317627,
				-2.5066350417546346e-07
			],
			"type":"VEC3"
		},
		{
			"bufferView":28,
			"componentType":5126,
			"count":4,
			"type":"VEC3"
		},
		{
			"bufferView":29,
			"componentType":5126,
			"count":4,
			"type":"VEC2"
		},
		{
			"bufferView":30,
			"componentType":5126,
			"count":4,
			"max":[
				1,
				3.9864211082458496,
				2.3812179961169022e-07
			],
			"min":[
				-1,
				-0.01357889175415039,
				-1.5129258201795892e-07
			],
			"type":"VEC3"
		},
		{
			"bufferView":31,
			"componentType":5126,
			"count":4,
			"type":"VEC3"
		},
		{
			"bufferView":32,
			"componentType":5126,
			"count":4,
			"type":"VEC2"
		},
		{
			"bufferView":33,
			"componentType":5126,
			"count":4,
			"max":[
				1,
				3.9864211082458496,
				2.3812179961169022e-07
			],
			"min":[
				-1,
				-0.01357889175415039,
				-1.5129258201795892e-07
			],
			"type":"VEC3"
		},
		{
			"bufferView":34,
			"componentType":5126,
			"count":4,
			"type":"VEC3"
		},
		{
			"bufferView":35,
			"componentType":5126,
			"count":4,
			"type":"VEC2"
		}
	],
	"bufferViews":[
		{
			"buffer":0,
			"byteLength":564,
			"byteOffset":0,
			"target":34962
		},
		{
			"buffer":0,
			"byteLength":564,
			"byteOffset":564,
			"target":34962
		},
		{
			"buffer":0,
			"byteLength":376,
			"byteOffset":1128,
			"target":34962
		},
		{
			"buffer":0,
			"byteLength":192,
			"byteOffset":1504,
			"target":34963
		},
		{
			"buffer":0,
			"byteLength":408,
			"byteOffset":1696,
			"target":34962
		},
		{
			"buffer":0,
			"byteLength":408,
			"byteOffset":2104,
			"target":34962
		},
		{
			"buffer":0,
			"byteLength":272,
			"byteOffset":2512,
			"target":34962
		},
		{
			"buffer":0,
			"byteLength":192,
			"byteOffset":2784,
			"target":34963
		},
		{
			"buffer":0,
			"byteLength":48,
			"byteOffset":2976,
			"target":34962
		},
		{
			"buffer":0,
			"byteLength":48,
			"byteOffset":3024,
			"target":34962
		},
		{
			"buffer":0,
			"byteLength":32,
			"byteOffset":3072,
			"target":34962
		},
		{
			"buffer":0,
			"byteLength":12,
			"byteOffset":3104,
			"target":34963
		},
		{
			"buffer":0,
			"byteLength":48,
			"byteOffset":3116,
			"target":34962
		},
		{
			"buffer":0,
			"byteLength":48,
			"byteOffset":3164,
			"target":34962
		},
		{
			"buffer":0,
			"byteLength":32,
			"byteOffset":3212,
			"target":34962
		},
		{
			"buffer":0,
			"byteLength":48,
			"byteOffset":3244,
			"target":34962
		},
		{
			"buffer":0,
			"byteLength":48,
			"byteOffset":3292,
			"target":34962
		},
		{
			"buffer":0,
			"byteLength":32,
			"byteOffset":3340,
			"target":34962
		},
		{
			"buffer":0,
			"byteLength":48,
			"byteOffset":3372,
			"target":34962
		},
		{
			"buffer":0,
			"byteLength":48,
			"byteOffset":3420,
			"target":34962
		},
		{
			"buffer":0,
			"byteLength":32,
			"byteOffset":3468,
			"target":34962
		},
		{
			"buffer":0,
			"byteLength":48,
			"byteOffset":3500,
			"target":34962
		},
		{
			"buffer":0,
			"byteLength":48,
			"byteOffset":3548,
			"target":34962
		},
		{
			"buffer":0,
			"byteLength":32,
			"byteOffset":3596,
			"target":34962
		},
		{
			"buffer":0,
			"byteLength":48,
			"byteOffset":3628,
			"target":34962
		},
		{
			"buffer":0,
			"byteLength":48,
			"byteOffset":3676,
			"target":34962
		},
		{
			"buffer":0,
			"byteLength":32,
			"byteOffset":3724,
			"target":34962
		},
		{
			"buffer":0,
			"byteLength":48,
			"byteOffset":3756,
			"target":34962
		},
		{
			"buffer":0,
			"byteLength":48,
			"byteOffset":3804,
			"target":34962
		},
		{
			"buffer":0,
			"byteLength":32,
			"byteOffset":3852,
			"target":34962
		},
		{
			"buffer":0,
			"byteLength":48,
			"byteOffset":3884,
			"target":34962
		},
		{
			"buffer":0,
			"byteLength":48,
			"byteOffset":3932,
			"target":34962
		},
		{
			"buffer":0,
			"byteLength":32,
			"byteOffset":3980,
			"target":34962
		},
		{
			"buffer":0,
			"byteLength":48,
			"byteOffset":4012,
			"target":34962
		},
		{
			"buffer":0,
			"byteLength":48,
			"byteOffset":4060,
			"target":34962
		},
		{
			"buffer":0,
			"byteLength":32,
			"byteOffset":4108,
			"target":34962
		}
	],
	"samplers":[
		{
			"magFilter":9729,
			"minFilter":9987,
			"wrapS":33071,
			"wrapT":33071
		},
		{
			"magFilter":9729,
			"minFilter":9987
		}
	],
	"buffers":[
		{
			"byteLength":4140,
			"uri":"test_map.bin"
		}
	]
}
